<?xml version="1.0" standalone="no"?>
<svg xmlns:xlink="http://www.w3.org/1999/xlink" id="wave" style="transform:rotate(0deg); transition: 0.3s" viewBox="0 0 1440 490" version="1.1" xmlns="http://www.w3.org/2000/svg"><defs><linearGradient id="sw-gradient-0" x1="0" x2="0" y1="1" y2="0"><stop stop-color="rgba(243, 106, 62, 1)" offset="0%"/><stop stop-color="rgba(255, 179, 11, 1)" offset="100%"/></linearGradient></defs><path style="transform:translate(0, 0px); opacity:1" fill="url(#sw-gradient-0)" d="M0,0L12,0C24,0,48,0,72,49C96,98,120,196,144,236.8C168,278,192,261,216,212.3C240,163,264,82,288,65.3C312,49,336,98,360,114.3C384,131,408,114,432,130.7C456,147,480,196,504,179.7C528,163,552,82,576,98C600,114,624,229,648,277.7C672,327,696,310,720,277.7C744,245,768,196,792,171.5C816,147,840,147,864,130.7C888,114,912,82,936,114.3C960,147,984,245,1008,302.2C1032,359,1056,376,1080,318.5C1104,261,1128,131,1152,73.5C1176,16,1200,33,1224,73.5C1248,114,1272,180,1296,187.8C1320,196,1344,147,1368,106.2C1392,65,1416,33,1440,89.8C1464,147,1488,294,1512,343C1536,392,1560,343,1584,294C1608,245,1632,196,1656,212.3C1680,229,1704,310,1716,351.2L1728,392L1728,490L1716,490C1704,490,1680,490,1656,490C1632,490,1608,490,1584,490C1560,490,1536,490,1512,490C1488,490,1464,490,1440,490C1416,490,1392,490,1368,490C1344,490,1320,490,1296,490C1272,490,1248,490,1224,490C1200,490,1176,490,1152,490C1128,490,1104,490,1080,490C1056,490,1032,490,1008,490C984,490,960,490,936,490C912,490,888,490,864,490C840,490,816,490,792,490C768,490,744,490,720,490C696,490,672,490,648,490C624,490,600,490,576,490C552,490,528,490,504,490C480,490,456,490,432,490C408,490,384,490,360,490C336,490,312,490,288,490C264,490,240,490,216,490C192,490,168,490,144,490C120,490,96,490,72,490C48,490,24,490,12,490L0,490Z"/></svg>