<?xml version="1.0" standalone="no"?>
<svg xmlns:xlink="http://www.w3.org/1999/xlink" id="wave" style="transform:rotate(0deg); transition: 0.3s" viewBox="0 0 1440 200" version="1.1" xmlns="http://www.w3.org/2000/svg"><defs><linearGradient id="sw-gradient-0" x1="0" x2="0" y1="1" y2="0"><stop stop-color="rgba(243, 106, 62, 1)" offset="0%"/><stop stop-color="rgba(255, 179, 11, 1)" offset="100%"/></linearGradient></defs><path style="transform:translate(0, 0px); opacity:1" fill="url(#sw-gradient-0)" d="M0,160L12,163.3C24,167,48,173,72,160C96,147,120,113,144,90C168,67,192,53,216,43.3C240,33,264,27,288,26.7C312,27,336,33,360,46.7C384,60,408,80,432,90C456,100,480,100,504,113.3C528,127,552,153,576,140C600,127,624,73,648,70C672,67,696,113,720,130C744,147,768,133,792,120C816,107,840,93,864,100C888,107,912,133,936,150C960,167,984,173,1008,160C1032,147,1056,113,1080,110C1104,107,1128,133,1152,143.3C1176,153,1200,147,1224,123.3C1248,100,1272,60,1296,60C1320,60,1344,100,1368,96.7C1392,93,1416,47,1440,30C1464,13,1488,27,1512,56.7C1536,87,1560,133,1584,146.7C1608,160,1632,140,1656,123.3C1680,107,1704,93,1716,86.7L1728,80L1728,200L1716,200C1704,200,1680,200,1656,200C1632,200,1608,200,1584,200C1560,200,1536,200,1512,200C1488,200,1464,200,1440,200C1416,200,1392,200,1368,200C1344,200,1320,200,1296,200C1272,200,1248,200,1224,200C1200,200,1176,200,1152,200C1128,200,1104,200,1080,200C1056,200,1032,200,1008,200C984,200,960,200,936,200C912,200,888,200,864,200C840,200,816,200,792,200C768,200,744,200,720,200C696,200,672,200,648,200C624,200,600,200,576,200C552,200,528,200,504,200C480,200,456,200,432,200C408,200,384,200,360,200C336,200,312,200,288,200C264,200,240,200,216,200C192,200,168,200,144,200C120,200,96,200,72,200C48,200,24,200,12,200L0,200Z"/></svg>